<svg id="Layer_1" enable-background="new 0 0 256 256" height="512" viewBox="0 0 256 256" width="512" xmlns="http://www.w3.org/2000/svg"><g><g><path d="m128 244.651v-41.161c0-8.276-3.287-16.212-9.139-22.064l-39.603-39.603c-4.905-4.905-12.857-4.905-17.761 0-4.904 4.905-4.904 12.856 0 17.761l16.269 16.269c2.588 2.587 2.588 6.783 0 9.37-2.588 2.588-6.783 2.588-9.37 0l-34.617-34.617c-2.341-2.341-3.656-5.515-3.656-8.826v-38.023c0-7.214-5.848-13.061-13.061-13.061-7.214 0-13.062 5.848-13.062 13.061v58.321c0 3.31 1.315 6.485 3.656 8.826l55.649 55.649v18.098z" fill="#ff9f70"/></g><g><path d="m128 244.651v-41.161c0-8.276 3.288-16.212 9.139-22.064l39.603-39.603c4.905-4.905 12.856-4.905 17.761 0 4.904 4.905 4.904 12.856 0 17.761l-16.269 16.269c-2.587 2.587-2.587 6.783 0 9.37 2.587 2.588 6.783 2.588 9.37 0l34.618-34.617c2.341-2.341 3.656-5.515 3.656-8.826v-38.023c0-7.214 5.848-13.061 13.061-13.061 7.214 0 13.061 5.848 13.061 13.061v58.321c0 3.31-1.315 6.485-3.656 8.826l-55.649 55.649v18.098z" fill="#ff9f70"/></g><g><g><path d="m241.701 90.995c.192.891.299 1.814.299 2.763v58.321c0 3.31-1.315 6.485-3.656 8.826l-52.72 52.72c-1.875 1.875-2.929 4.419-2.929 7.071v23.956h10v-18.098l55.649-55.649c2.341-2.341 3.656-5.515 3.656-8.826v-58.321c0-6.266-4.413-11.495-10.299-12.763z" fill="#e18152"/></g></g><g><g><path d="m14.299 90.995c-.192.891-.299 1.814-.299 2.762v58.321c0 3.31 1.315 6.485 3.656 8.826l52.72 52.72c1.875 1.875 2.929 4.419 2.929 7.071v23.956h-10v-18.098l-55.649-55.649c-2.341-2.34-3.656-5.515-3.656-8.825v-58.321c0-6.266 4.413-11.495 10.299-12.763z" fill="#ffbd8e"/></g></g><g><path d="m192.695 246.651h-64.695c-1.104 0-2-.895-2-2v-41.161c0-8.87 3.454-17.208 9.726-23.479l39.602-39.603c5.675-5.678 14.912-5.678 20.589 0 5.677 5.677 5.677 14.912 0 20.589l-16.27 16.27c-1.803 1.804-1.803 4.738 0 6.542 1.805 1.803 4.738 1.803 6.543 0l34.617-34.617c1.979-1.979 3.069-4.612 3.069-7.412v-38.023c0-8.305 6.757-15.062 15.062-15.062s15.061 6.757 15.061 15.062v58.321c0 3.867-1.506 7.503-4.241 10.239l-55.064 55.063v17.27c.001 1.106-.894 2.001-1.999 2.001zm-62.695-4h60.695v-16.098c0-.53.211-1.039.586-1.414l55.649-55.649c1.98-1.98 3.069-4.612 3.069-7.411v-58.321c0-6.1-4.962-11.062-11.061-11.062-6.1 0-11.062 4.962-11.062 11.062v38.023c0 3.869-1.506 7.506-4.241 10.24l-34.617 34.617c-1.629 1.63-3.796 2.526-6.1 2.526s-4.47-.896-6.099-2.526c-3.363-3.362-3.364-8.834-.001-12.198l16.27-16.27c4.117-4.117 4.117-10.815 0-14.933-1.994-1.994-4.645-3.093-7.467-3.093-2.82 0-5.472 1.099-7.466 3.093l-39.603 39.602c-5.516 5.516-8.554 12.849-8.554 20.65v39.162z" fill="#690589"/></g><g><path d="m128 246.651h-64.695c-1.104 0-2-.895-2-2v-17.27l-55.064-55.063c-2.735-2.736-4.241-6.372-4.241-10.239v-58.321c0-8.305 6.757-15.062 15.062-15.062s15.062 6.757 15.062 15.062v38.023c0 2.8 1.09 5.433 3.069 7.412l34.617 34.617c.874.874 2.036 1.354 3.271 1.354s2.396-.48 3.271-1.354c1.804-1.804 1.804-4.738.001-6.542l-16.27-16.27c-5.677-5.677-5.677-14.912 0-20.589 5.676-5.679 14.913-5.678 20.589 0l39.603 39.603c6.271 6.27 9.726 14.608 9.726 23.479v41.161c-.001 1.104-.896 1.999-2.001 1.999zm-62.695-4h60.695v-39.161c0-7.802-3.038-15.135-8.554-20.65l-39.602-39.602c-1.994-1.994-4.646-3.093-7.466-3.093-2.821 0-5.473 1.099-7.467 3.093-4.117 4.117-4.117 10.815 0 14.933l16.27 16.27c3.362 3.363 3.362 8.836 0 12.198-3.363 3.363-8.836 3.363-12.199 0l-34.618-34.619c-2.735-2.734-4.241-6.371-4.241-10.24v-38.023c0-6.1-4.962-11.062-11.061-11.062s-11.062 4.963-11.062 11.063v58.321c0 2.799 1.09 5.431 3.069 7.411l55.65 55.649c.375.375.586.884.586 1.414z" fill="#690589"/></g><g><path d="m14 145.842c-1.104 0-2-.895-2-2v-12c0-1.104.896-2 2-2s2 .896 2 2v12c0 1.104-.896 2-2 2z" fill="#690589"/></g><g><path d="m56.598 25.296c-18.596 18.596-18.596 48.747 0 67.343l71.402 71.402 71.402-71.402c18.596-18.596 18.596-48.747 0-67.343-18.596-18.596-48.747-18.596-67.343 0l-4.059 4.059-4.059-4.059c-18.596-18.596-48.747-18.596-67.343 0z" fill="#7bac51"/></g><g><g><path d="m199.402 25.296c-10.775-10.775-25.427-15.293-39.465-13.582 10.19 1.242 20.057 5.76 27.878 13.582 18.596 18.596 16.896 46.612 0 67.343l-59.815 71.402 71.402-71.402c18.597-18.596 18.597-48.747 0-67.343z" fill="#5d8e33"/></g></g><g><g><path d="m56.598 25.296c10.775-10.775 25.427-15.293 39.465-13.582-10.19 1.242-20.057 5.76-27.878 13.582-18.596 18.596-16.896 46.612 0 67.343l59.815 71.402-71.402-71.402c-18.597-18.596-18.597-48.747 0-67.343z" fill="#99ca6f"/></g></g><g><path d="m128 166.041c-.512 0-1.023-.195-1.414-.586l-71.402-71.401c-19.347-19.347-19.347-50.825 0-70.172 19.346-19.348 50.826-19.348 70.172 0l2.644 2.644 2.645-2.645c19.346-19.348 50.826-19.348 70.172 0 19.346 19.347 19.346 50.825 0 70.172l-71.402 71.401c-.392.392-.903.587-1.415.587zm-37.73-152.671c-11.682 0-23.364 4.446-32.258 13.34-17.787 17.787-17.787 46.729 0 64.516l69.988 69.987 69.988-69.987c17.786-17.787 17.786-46.729 0-64.516-17.787-17.787-46.729-17.787-64.516 0l-4.059 4.059c-.781.781-2.047.781-2.828 0l-4.059-4.059c-8.892-8.894-20.575-13.34-32.256-13.34z" fill="#690589"/></g><g><circle cx="128" cy="83.309" fill="#f4efed" r="43.8"/></g><g><path d="m128 129.109c-25.254 0-45.8-20.546-45.8-45.801 0-25.254 20.546-45.8 45.8-45.8s45.8 20.546 45.8 45.8c0 25.255-20.546 45.801-45.8 45.801zm0-87.6c-23.049 0-41.8 18.751-41.8 41.8s18.751 41.801 41.8 41.801 41.8-18.752 41.8-41.801-18.751-41.8-41.8-41.8z" fill="#690589"/></g><g><path d="m128 118.236c-1.104 0-2-.896-2-2v-26.324c0-1.104.896-2 2-2 1.105 0 2 .896 2 2v26.324c0 1.105-.895 2-2 2z" fill="#690589"/></g><g><path d="m157.608 67.775c-.182-.683-.716-1.217-1.399-1.4-7.718-2.059-16.014.163-21.652 5.801s-7.861 13.934-5.802 21.652c.183.683.716 1.217 1.399 1.399 1.903.508 3.842.755 5.768.755 5.881 0 11.637-2.309 15.884-6.557 5.638-5.636 7.861-13.932 5.802-21.65z" fill="#7bac51"/></g><g><path d="m135.922 97.982c-2.124 0-4.237-.276-6.283-.822-1.371-.367-2.45-1.446-2.816-2.815-2.242-8.406.18-17.442 6.32-23.582 6.138-6.141 15.172-8.564 23.582-6.32 1.372.369 2.45 1.447 2.815 2.815.001 0 .001.001.001.001 2.242 8.405-.18 17.441-6.32 23.582-4.538 4.539-10.844 7.141-17.299 7.141zm14.517-30.363c-5.357 0-10.601 2.103-14.469 5.972-5.134 5.135-7.158 12.691-5.283 19.722 1.691.438 3.459.67 5.234.67 5.402 0 10.677-2.176 14.471-5.97 5.131-5.131 7.156-12.682 5.287-19.709-1.729-.46-3.49-.685-5.24-.685zm5.25.688h.01z" fill="#690589"/></g><g><path d="m98.392 67.775c.182-.683.716-1.217 1.399-1.4 7.718-2.059 16.015.163 21.652 5.801 5.638 5.638 7.861 13.934 5.802 21.652-.183.683-.716 1.217-1.399 1.399-1.903.508-3.842.755-5.767.755-5.881 0-11.637-2.309-15.884-6.557-5.639-5.636-7.862-13.932-5.803-21.65z" fill="#7bac51"/></g><g><path d="m120.078 97.982c-6.455 0-12.761-2.603-17.299-7.142-6.141-6.141-8.562-15.177-6.32-23.582 0 0 0-.001.001-.001.365-1.368 1.443-2.446 2.812-2.814 8.414-2.241 17.448.179 23.586 6.319 6.141 6.14 8.563 15.176 6.32 23.581-.369 1.372-1.447 2.45-2.815 2.815-2.048.548-4.161.824-6.285.824zm-19.758-29.678c-1.869 7.027.156 14.578 5.287 19.709 3.794 3.794 9.068 5.97 14.471 5.97 1.775 0 3.543-.231 5.252-.688 1.857-7.013-.167-14.569-5.301-19.704-5.131-5.131-12.682-7.157-19.709-5.287z" fill="#690589"/></g></g></svg>