<svg xmlns="http://www.w3.org/2000/svg" height="512pt" version="1.1" viewBox="0 0 512 512" width="512pt">
<g id="surface1">
<path d="M 512 256 C 512 278.101562 509.199219 299.539062 503.929688 320 C 503.628906 321.179688 503.308594 322.359375 502.988281 323.53125 C 502.800781 324.210938 502.621094 324.890625 502.421875 325.558594 C 502.230469 326.261719 502.03125 326.949219 501.820312 327.640625 C 501.699219 328.089844 501.570312 328.53125 501.441406 328.96875 C 501.191406 329.820312 500.929688 330.671875 500.660156 331.511719 C 500.488281 332.089844 500.308594 332.660156 500.128906 333.230469 C 499.660156 334.730469 499.171875 336.230469 498.660156 337.71875 C 498.320312 338.730469 497.980469 339.738281 497.621094 340.738281 C 497.589844 340.828125 497.558594 340.929688 497.519531 341.019531 C 497.128906 342.148438 496.71875 343.28125 496.300781 344.410156 C 495.738281 345.941406 495.160156 347.46875 494.570312 348.988281 C 494.050781 350.339844 493.511719 351.671875 492.96875 353 L 492.960938 353 C 490.441406 359.179688 487.671875 365.230469 484.691406 371.148438 C 480.730469 379 476.378906 386.609375 471.671875 393.960938 C 470.539062 395.71875 469.398438 397.460938 468.21875 399.191406 C 461.871094 408.589844 454.910156 417.550781 447.390625 426 C 440.609375 433.640625 433.371094 440.871094 425.71875 447.648438 C 422.828125 450.210938 419.871094 452.71875 416.859375 455.148438 C 372.898438 490.699219 316.941406 512 256 512 C 195.058594 512 139.101562 490.699219 95.140625 455.148438 C 92.128906 452.71875 89.171875 450.210938 86.28125 447.648438 C 80.191406 442.261719 74.371094 436.578125 68.820312 430.628906 C 67.390625 429.101562 65.988281 427.558594 64.601562 426 C 55.699219 415.988281 47.578125 405.28125 40.328125 393.960938 C 35.621094 386.609375 31.269531 379 27.308594 371.148438 C 9.839844 336.539062 0 297.421875 0 256 C 0 249.269531 0.261719 242.609375 0.769531 236.011719 C 2.800781 209.679688 8.820312 184.480469 18.210938 160.988281 C 23.761719 147.109375 30.5 133.828125 38.289062 121.269531 C 83.429688 48.480469 164.058594 0 256 0 C 347.941406 0 428.570312 48.480469 473.710938 121.269531 C 481.5 133.828125 488.230469 147.109375 493.78125 161 C 505.539062 190.371094 512 222.429688 512 256 Z M 512 256 " style=" stroke:none;fill-rule:nonzero;fill:rgb(100%,91.372549%,33.333333%);fill-opacity:1;" />
<path d="M 512 256 C 512 282.050781 508.109375 307.191406 500.871094 330.871094 C 468.859375 435.71875 371.328125 512 256 512 C 151.441406 512 61.511719 449.300781 21.769531 359.449219 C 7.769531 327.820312 0 292.820312 0 256 C 0 209.78125 12.25 166.429688 33.679688 129 C 77.800781 206.070312 160.839844 258 256 258 C 351.160156 258 434.210938 206.070312 478.320312 129 C 499.75 166.429688 512 209.78125 512 256 Z M 512 256 " style=" stroke:none;fill-rule:nonzero;fill:rgb(100%,81.960784%,7.058824%);fill-opacity:1;" />
<path d="M 115.84375 219.773438 C 115.84375 219.707031 115.847656 219.644531 115.847656 219.578125 C 115.847656 207.714844 105.921875 198.097656 93.679688 198.097656 C 90.769531 198.097656 87.996094 198.644531 85.449219 199.632812 C 80.535156 191.097656 71.128906 185.320312 60.324219 185.320312 C 46.296875 185.320312 34.621094 195.058594 32.082031 207.933594 C 31.328125 207.828125 30.554688 207.773438 29.769531 207.773438 C 22.140625 207.773438 15.75 212.890625 14.042969 219.773438 Z M 115.84375 219.773438 " style=" stroke:none;fill-rule:nonzero;fill:rgb(100%,100%,100%);fill-opacity:1;" />
<path d="M 245.605469 84.550781 C 245.605469 84.484375 245.609375 84.421875 245.609375 84.355469 C 245.609375 72.488281 235.683594 62.871094 223.441406 62.871094 C 220.53125 62.871094 217.757812 63.417969 215.210938 64.40625 C 210.296875 55.871094 200.890625 50.097656 190.085938 50.097656 C 176.058594 50.097656 164.382812 59.832031 161.84375 72.710938 C 161.089844 72.605469 160.316406 72.546875 159.53125 72.546875 C 151.902344 72.546875 145.511719 77.664062 143.804688 84.546875 L 245.605469 84.546875 Z M 245.605469 84.550781 " style=" stroke:none;fill-rule:nonzero;fill:rgb(100%,100%,100%);fill-opacity:1;" />
<path d="M 497.425781 207.644531 C 497.425781 207.574219 497.429688 207.511719 497.429688 207.441406 C 497.429688 195.050781 487.386719 185.007812 474.996094 185.007812 C 472.050781 185.007812 469.242188 185.578125 466.667969 186.609375 C 461.691406 177.695312 452.171875 171.667969 441.238281 171.667969 C 427.042969 171.667969 415.226562 181.835938 412.660156 195.28125 C 411.894531 195.171875 411.113281 195.113281 410.316406 195.113281 C 402.597656 195.113281 396.128906 200.457031 394.402344 207.644531 Z M 497.425781 207.644531 " style=" stroke:none;fill-rule:nonzero;fill:rgb(100%,100%,100%);fill-opacity:1;" />
<path d="M 364.039062 100.886719 C 364.039062 100.839844 364.042969 100.796875 364.042969 100.75 C 364.042969 92.328125 357.21875 85.503906 348.796875 85.503906 C 346.796875 85.503906 344.886719 85.894531 343.136719 86.59375 C 339.757812 80.539062 333.289062 76.441406 325.859375 76.441406 C 316.214844 76.441406 308.183594 83.347656 306.441406 92.488281 C 305.921875 92.410156 305.390625 92.371094 304.847656 92.371094 C 299.601562 92.371094 295.210938 96.003906 294.035156 100.886719 Z M 364.039062 100.886719 " style=" stroke:none;fill-rule:nonzero;fill:rgb(100%,100%,100%);fill-opacity:1;" />
<path d="M 384.441406 160.695312 L 384.441406 428.152344 " style="fill:none;stroke-width:15;stroke-linecap:butt;stroke-linejoin:miter;stroke:rgb(47.843137%,17.647059%,10.196078%);stroke-opacity:1;stroke-miterlimit:10;" />
<path d="M 437.570312 233.808594 L 413.261719 233.808594 L 437.570312 275.910156 L 413.261719 275.910156 L 437.570312 318.019531 L 331.308594 318.019531 L 355.609375 275.910156 L 331.308594 275.910156 L 355.609375 233.808594 L 331.308594 233.808594 L 348.898438 203.328125 L 355.609375 191.699219 L 331.308594 191.699219 L 384.429688 99.660156 L 437.570312 191.699219 L 413.261719 191.699219 L 419.96875 203.328125 Z M 437.570312 233.808594 " style=" stroke:none;fill-rule:nonzero;fill:rgb(0%,62.745098%,25.882353%);fill-opacity:1;" />
<path d="M 331.3125 233.808594 L 355.613281 233.808594 L 331.3125 275.910156 L 355.613281 275.910156 L 331.3125 318.019531 L 354.761719 318.019531 L 378.433594 261 L 357.09375 261 L 375.761719 220.328125 L 359.761719 220.328125 L 382.433594 173.671875 L 362.433594 173.671875 L 384.433594 99.660156 L 331.3125 191.699219 L 355.613281 191.699219 L 348.902344 203.328125 Z M 331.3125 233.808594 " style=" stroke:none;fill-rule:nonzero;fill:rgb(42.352941%,86.27451%,17.647059%);fill-opacity:1;" />
<path d="M 255.996094 160.695312 L 255.996094 428.152344 " style="fill:none;stroke-width:15;stroke-linecap:butt;stroke-linejoin:miter;stroke:rgb(47.843137%,17.647059%,10.196078%);stroke-opacity:1;stroke-miterlimit:10;" />
<path d="M 309.128906 233.808594 L 284.820312 233.808594 L 309.128906 275.910156 L 284.820312 275.910156 L 309.128906 318.019531 L 202.871094 318.019531 L 227.171875 275.910156 L 202.871094 275.910156 L 227.171875 233.808594 L 202.871094 233.808594 L 220.460938 203.328125 L 227.171875 191.699219 L 202.871094 191.699219 L 255.988281 99.660156 L 309.128906 191.699219 L 284.820312 191.699219 L 291.53125 203.328125 Z M 309.128906 233.808594 " style=" stroke:none;fill-rule:nonzero;fill:rgb(0%,62.745098%,25.882353%);fill-opacity:1;" />
<path d="M 309.128906 233.808594 L 284.820312 233.808594 L 309.128906 275.910156 L 284.820312 275.910156 L 309.128906 318.019531 L 255.988281 318.019531 L 255.988281 99.660156 L 309.128906 191.699219 L 284.820312 191.699219 L 291.53125 203.328125 Z M 309.128906 233.808594 " style=" stroke:none;fill-rule:nonzero;fill:rgb(0%,40.784314%,21.568627%);fill-opacity:1;" />
<path d="M 202.871094 233.808594 L 227.171875 233.808594 L 202.871094 275.910156 L 227.171875 275.910156 L 202.871094 318.019531 L 226.320312 318.019531 L 249.988281 261 L 228.648438 261 L 247.320312 220.328125 L 231.320312 220.328125 L 253.988281 173.671875 L 233.988281 173.671875 L 255.988281 99.660156 L 202.871094 191.699219 L 227.171875 191.699219 L 220.460938 203.328125 Z M 202.871094 233.808594 " style=" stroke:none;fill-rule:nonzero;fill:rgb(42.352941%,86.27451%,17.647059%);fill-opacity:1;" />
<path d="M 127.554688 160.695312 L 127.554688 428.152344 " style="fill:none;stroke-width:15;stroke-linecap:butt;stroke-linejoin:miter;stroke:rgb(47.843137%,17.647059%,10.196078%);stroke-opacity:1;stroke-miterlimit:10;" />
<path d="M 180.691406 233.808594 L 156.378906 233.808594 L 180.691406 275.910156 L 156.378906 275.910156 L 180.691406 318.019531 L 74.429688 318.019531 L 98.730469 275.910156 L 74.429688 275.910156 L 98.730469 233.808594 L 74.429688 233.808594 L 92.019531 203.328125 L 98.730469 191.699219 L 74.429688 191.699219 L 127.550781 99.660156 L 180.691406 191.699219 L 156.378906 191.699219 L 163.089844 203.328125 Z M 180.691406 233.808594 " style=" stroke:none;fill-rule:nonzero;fill:rgb(0%,62.745098%,25.882353%);fill-opacity:1;" />
<path d="M 74.425781 233.808594 L 98.726562 233.808594 L 74.425781 275.910156 L 98.726562 275.910156 L 74.425781 318.019531 L 97.878906 318.019531 L 121.546875 261 L 100.207031 261 L 118.878906 220.328125 L 102.878906 220.328125 L 125.546875 173.671875 L 105.546875 173.671875 L 127.546875 99.660156 L 74.425781 191.699219 L 98.726562 191.699219 L 92.015625 203.328125 Z M 74.425781 233.808594 " style=" stroke:none;fill-rule:nonzero;fill:rgb(42.352941%,86.27451%,17.647059%);fill-opacity:1;" />
<path d="M 180.691406 233.808594 L 156.378906 233.808594 L 180.691406 275.910156 L 156.378906 275.910156 L 180.691406 318.019531 L 127.550781 318.019531 L 127.550781 99.660156 L 180.691406 191.699219 L 156.378906 191.699219 L 163.089844 203.328125 Z M 180.691406 233.808594 " style=" stroke:none;fill-rule:nonzero;fill:rgb(0%,40.784314%,21.568627%);fill-opacity:1;" />
<path d="M 437.570312 233.808594 L 413.261719 233.808594 L 437.570312 275.910156 L 413.261719 275.910156 L 437.570312 318.019531 L 384.429688 318.019531 L 384.429688 99.660156 L 437.570312 191.699219 L 413.261719 191.699219 L 419.96875 203.328125 Z M 437.570312 233.808594 " style=" stroke:none;fill-rule:nonzero;fill:rgb(0%,40.784314%,21.568627%);fill-opacity:1;" />
<path d="M 478.320312 383 C 464.421875 407.28125 446.671875 429.050781 425.890625 447.5 C 380.691406 487.628906 321.191406 512 256 512 C 190.808594 512 131.308594 487.628906 86.109375 447.5 C 65.328125 429.050781 47.578125 407.28125 33.679688 383 Z M 478.320312 383 " style=" stroke:none;fill-rule:nonzero;fill:rgb(77.254902%,34.509804%,20.784314%);fill-opacity:1;" />
<path d="M 425.890625 447.5 C 380.691406 487.628906 321.191406 512 256 512 C 190.808594 512 131.308594 487.628906 86.109375 447.5 Z M 425.890625 447.5 " style=" stroke:none;fill-rule:nonzero;fill:rgb(91.764706%,50.980392%,30.588235%);fill-opacity:1;" />
<path d="M 206.871094 447.109375 C 206.871094 447.289062 206.859375 447.46875 206.859375 447.648438 L 86.28125 447.648438 C 76.460938 438.949219 67.320312 429.511719 58.949219 419.410156 C 52.238281 411.328125 46.011719 402.828125 40.328125 393.960938 C 43.371094 394.78125 46.300781 395.871094 49.109375 397.191406 C 49.050781 396.269531 49.011719 395.339844 49.011719 394.398438 C 49.011719 371.621094 67.480469 353.148438 90.261719 353.148438 C 113.039062 353.148438 131.511719 371.621094 131.511719 394.398438 C 131.511719 394.890625 131.488281 395.378906 131.46875 395.871094 C 137.75 393.378906 144.589844 392 151.761719 392 C 182.199219 392 206.871094 416.671875 206.871094 447.109375 Z M 206.871094 447.109375 " style=" stroke:none;fill-rule:nonzero;fill:rgb(42.352941%,86.27451%,17.647059%);fill-opacity:1;" />
<path d="M 177.050781 447.648438 L 86.28125 447.648438 C 76.460938 438.949219 67.320312 429.511719 58.949219 419.410156 C 59.390625 402.46875 73.261719 388.871094 90.308594 388.871094 C 107.628906 388.871094 121.679688 402.921875 121.679688 420.238281 C 121.679688 420.621094 121.671875 420.988281 121.648438 421.359375 C 126.429688 419.46875 131.628906 418.421875 137.078125 418.421875 C 155.820312 418.421875 171.671875 430.699219 177.050781 447.648438 Z M 177.050781 447.648438 " style=" stroke:none;fill-rule:nonzero;fill:rgb(0%,62.745098%,25.882353%);fill-opacity:1;" />
<path d="M 471.671875 393.960938 C 467.199219 400.949219 462.378906 407.710938 457.25 414.210938 C 447.769531 426.28125 437.199219 437.46875 425.71875 447.648438 L 305.140625 447.648438 C 305.140625 447.46875 305.128906 447.289062 305.128906 447.109375 C 305.128906 416.671875 329.800781 392 360.238281 392 C 368.589844 392 376.511719 393.859375 383.601562 397.191406 C 383.539062 396.269531 383.488281 395.339844 383.488281 394.398438 C 383.488281 371.621094 401.960938 353.148438 424.738281 353.148438 C 447.519531 353.148438 465.988281 371.621094 465.988281 394.398438 C 465.988281 394.890625 465.96875 395.378906 465.949219 395.871094 C 467.808594 395.128906 469.71875 394.488281 471.671875 393.960938 Z M 471.671875 393.960938 " style=" stroke:none;fill-rule:nonzero;fill:rgb(42.352941%,86.27451%,17.647059%);fill-opacity:1;" />
<path d="M 457.25 414.210938 C 447.769531 426.28125 437.199219 437.46875 425.71875 447.648438 L 334.578125 447.648438 C 338.671875 428.53125 355.660156 414.199219 376 414.199219 C 382.421875 414.199219 388.511719 415.628906 393.960938 418.191406 C 393.921875 417.480469 393.878906 416.769531 393.878906 416.050781 C 393.878906 398.53125 408.078125 384.328125 425.589844 384.328125 C 442.480469 384.328125 456.289062 397.550781 457.25 414.210938 Z M 457.25 414.210938 " style=" stroke:none;fill-rule:nonzero;fill:rgb(0%,62.745098%,25.882353%);fill-opacity:1;" />
</g>
</svg>