<svg id="Capa_1" enable-background="new 0 0 512 512" height="512" viewBox="0 0 512 512" width="512" xmlns="http://www.w3.org/2000/svg"><g><path d="m501.34 424.9c-13.7 23.73-38.23 37.89-65.63 37.89h-179.71v49.21l-91.14-87.1 91.14-87.1v49.21h141.32c17.06 0 27.73-18.47 19.19-33.25l-49.61-85.95 65.63-37.89 68.81 119.2c13.7 23.72 13.7 52.05 0 75.78z" fill="#019a5a"/><path d="m449.37 160.72-29.85 122.48-121-35.36 42.53-24.57-65.84-114.15c-4.27-7.4-11.74-11.09-19.21-11.09s-14.95 3.7-19.21 11.11l-49.33 85.77-65.63-37.89 68.52-119.13c13.69-23.72 38.23-37.89 65.62-37.89h.03c27.41.01 51.94 14.19 65.63 37.93l85.05 147.44z" fill="#abe233"/><path d="m204.562 462.791h-127.243c-27.25 0-52.822-14.108-66.526-37.661-13.832-23.774-13.877-52.211-.134-76.014l85.363-147.798-42.583-24.585 121.003-35.381 29.861 122.482-42.649-24.624-66.156 114.542c-8.536 14.779 2.13 33.256 19.197 33.256h89.868v75.783z" fill="#d7ff5a"/><g fill="#56c125"><path d="m256 462.79v49.21l-91.14-87.1 91.14-87.1v49.21z"/><path d="m449.37 160.72-29.85 122.48-121-35.36 42.53-24.57-65.84-114.15c-4.27-7.4-11.74-11.09-19.21-11.09v-98.03c27.41.01 51.94 14.19 65.63 37.93l85.05 147.44z"/></g></g></svg>